<?xml version="1.0" encoding="utf-8"?>
<!-- Svg Vector Icons : http://www.onlinewebfonts.com/icon -->
<!DOCTYPE svg PUBLIC "-//W3C//DTD SVG 1.1//EN" "http://www.w3.org/Graphics/SVG/1.1/DTD/svg11.dtd">
<svg version="1.1" xmlns="http://www.w3.org/2000/svg" xmlns:xlink="http://www.w3.org/1999/xlink" x="0px" y="0px" viewBox="0 0 1000 1000" enable-background="new 0 0 1000 1000" xml:space="preserve">
<metadata> Svg Vector Icons : http://www.onlinewebfonts.com/icon </metadata>
<g><g transform="translate(0.000000,512.000000) scale(0.100000,-0.100000)"><path d="M2379.5,4998.5c-187.9-59.4-293.3-151.4-391.1-337.4l-46-86.3V127.4v-4447.4l49.8-105.4c70.9-153.4,138-220.4,281.8-291.4l128.4-63.3H5000h2597.5l107.3,49.8c136.1,63.3,239.6,166.8,302.9,302.9l49.8,107.3V117.9v4437.8l-63.2,128.4c-70.9,143.8-138,210.9-291.4,281.8l-105.4,49.8l-2568.8,3.8C2943.1,5021.5,2444.7,5017.6,2379.5,4998.5z M7311.9,4362c28.8-21.1,70.9-63.3,92-92l40.3-51.8V117.9v-4100.4l-40.3-51.7c-21.1-28.8-63.3-70.9-92-92c-51.7-40.2-59.4-40.2-2311.9-40.2c-2252.4,0-2260.1,0-2311.9,40.2c-28.8,21.1-70.9,63.3-92,92l-40.3,51.7l-5.7,4048.7c-1.9,2227.5,0,4075.5,5.7,4110c13.4,76.7,93.9,174.4,172.5,209c46,21.1,463.9,24.9,2294.6,21.1C7248.6,4402.3,7260.1,4402.3,7311.9,4362z"/><path d="M3642.8,3765.8c-34.5-17.3-86.3-61.3-115-97.8c-74.8-97.8-72.8-256.9,0-352.7c103.5-136.1,38.3-130.4,1472.2-130.4c1433.9,0,1368.7-5.7,1472.2,130.4c74.8,97.8,74.8,255,0,352.7c-103.5,136.1-38.3,130.4-1476.1,130.4C3840.2,3798.4,3700.3,3794.6,3642.8,3765.8z"/><path d="M3642.8,2539c-34.5-17.3-86.3-61.3-115-97.8c-74.8-97.8-72.8-256.9,0-352.7c103.5-136.1,38.3-130.3,1472.2-130.3c1433.9,0,1368.7-5.8,1472.2,130.3c74.8,97.8,74.8,255,0,352.7c-103.5,136.1-38.3,130.4-1476.1,130.4C3840.2,2571.6,3700.3,2567.7,3642.8,2539z"/><path d="M3642.8,1312.1c-34.5-17.3-86.3-61.3-115-97.8c-74.8-97.8-72.8-256.9,0-352.7c103.5-136.1,38.3-130.4,1472.2-130.4c1433.9,0,1368.7-5.7,1472.2,130.4c74.8,97.8,74.8,255,0,352.7c-103.5,136.1-38.3,130.4-1476.1,130.4C3840.2,1344.7,3700.3,1340.9,3642.8,1312.1z"/><path d="M4262-2976.1c-78.6-34.5-159.1-132.3-174.4-212.8c-19.2-111.2,7.7-197.4,88.2-277.9c128.4-128.4,293.3-128.4,421.7,0C4835.1-3229.2,4568.7-2842,4262-2976.1z"/><path d="M5488.8-2976.1c-78.6-34.5-159.1-132.3-174.4-212.8c-19.2-111.2,7.7-197.4,88.2-277.9c128.5-128.4,293.3-128.4,421.7,0C6062-3229.2,5795.5-2842,5488.8-2976.1z"/></g></g>
</svg>